PathFileType	3	(X/Y/Z)	E:\ViconData\BIOM9541 2025\Week 7\Wed1100\Hanif deep squat 7-5 Squat 01.trc
DataRate	CameraRate	NumFrames	NumMarkers	Units	OrigDataRate	OrigDataStartFrame	OrigNumFrames
200.0	200.0	18	19	mm	200.0	1381	1840	
Frame#	Time	C7			CLAV			RBAK			LASI			RASI			LPSI			RPSI			LTHI			LKNE			LTIB			LANK			LHEE			LTOE			RTHI			RKNE			RTIB			RANK			RHEE			RTOE			
		X1	Y1	Z1	X2	Y2	Z2	X3	Y3	Z3	X4	Y4	Z4	X5	Y5	Z5	X6	Y6	Z6	X7	Y7	Z7	X8	Y8	Z8	X9	Y9	Z9	X10	Y10	Z10	X11	Y11	Z11	X12	Y12	Z12	X13	Y13	Z13	X14	Y14	Z14	X15	Y15	Z15	X16	Y16	Z16	X17	Y17	Z17	X18	Y18	Z18	X19	Y19	Z19	
1381	6.9	335.36169	1069.1504	-1225.7219	185.97046	994.43433	-1216.0935	348.05109	992.07092	-1377.3036	272.44809	629.19629	-1101.2981	268.30313	647.11755	-1360.9789	440.51483	696.69177	-1183.3984	441.60803	694.98798	-1257.3308	181.33322	468.27399	-938.08655	99.146599	359.99567	-902.59509	207.55302	185.8438	-941.54706	291.0282	61.555187	-1003.6749	312.78238	54.078835	-1067.7434	158.57767	38.844669	-967.56659	296.93405	570.09546	-1445.7565	108.10664	349.1456	-1532.8909	144.63341	271.95834	-1527.5868	290.34753	69.376472	-1433.519	316.64594	52.349052	-1363.3433	162.67102	41.122131	-1462.8007
1382	6.905	335.20184	1064.6935	-1225.6234	186.27939	989.99487	-1217.0125	347.97012	987.56268	-1377.2281	272.97238	624.96075	-1101.1768	268.84882	642.86774	-1360.7878	441.05856	692.33258	-1183.3398	442.23062	690.74304	-1257.2209	181.01904	466.57877	-937.80261	98.201073	359.14587	-901.79993	207.03233	185.36749	-941.26105	291.38394	65.29937	-999.89886	312.72687	54.084038	-1067.7666	158.54045	38.853527	-967.61053	297.62671	566.99353	-1445.5763	107.11893	348.10352	-1533.5261	143.74731	271.07053	-1528.0895	290.22409	69.31443	-1433.4382	316.38522	52.358826	-1363.0479	162.61615	41.068855	-1462.7773
1383	6.91	335.02328	1060.17	-1225.6769	185.437	985.46411	-1216.7053	348.24341	983.11365	-1377.3588	273.50723	620.66504	-1101.0403	269.43576	638.59003	-1360.6586	441.64322	687.90723	-1183.4993	442.83289	686.51599	-1257.1727	180.77469	464.93903	-937.48309	97.245979	358.27972	-901.10675	206.47073	184.95308	-940.96759	290.78482	61.755119	-1003.2485	312.71341	54.107788	-1067.8431	158.50876	38.814129	-967.61237	298.21597	564.03845	-1445.5349	106.15337	347.09229	-1534.1539	142.82306	270.11044	-1528.568	290.08859	69.138939	-1433.3379	316.17184	52.276421	-1362.8374	162.55275	40.970531	-1462.74
1384	6.915	334.83392	1055.7776	-1225.6729	185.63652	980.76019	-1216.2882	347.7757	978.62518	-1377.1647	274.03586	616.46375	-1100.9491	269.92886	634.41272	-1360.5707	442.23843	683.59448	-1183.6619	443.3967	682.30341	-1257.0626	180.56396	463.30783	-937.28235	96.376854	357.46729	-900.41956	206.03026	184.55513	-940.68329	294.73523	64.677933	-1007.8745	312.58047	54.07539	-1067.8176	158.46938	38.800312	-967.62762	298.82083	561.19489	-1445.5391	105.23357	346.16037	-1534.8688	141.93236	269.25677	-1529.0791	289.96979	69.061203	-1433.267	316.16058	52.232193	-1363.001	162.48749	40.898041	-1462.6626
1385	6.92	334.58273	1051.3518	-1225.5784	185.60548	976.54156	-1217.3507	347.5947	974.18634	-1377.0784	274.57196	612.22327	-1100.7969	270.33981	630.42236	-1360.5691	442.76697	679.31665	-1183.4324	443.9642	678.08173	-1256.9587	180.35373	461.6893	-936.93982	95.669739	356.6199	-899.81152	205.63835	184.16647	-940.4325	294.62967	64.669167	-1007.85	312.55484	54.179634	-1067.8722	158.4379	38.853317	-967.58398	299.44684	558.27234	-1445.3569	104.30878	345.26303	-1535.51	141.06781	268.49051	-1529.5944	289.84753	69.111771	-1433.2112	315.98096	52.418182	-1362.8057	162.4304	40.964989	-1462.6761
1386	6.925	334.34442	1046.9982	-1225.5476	185.43716	971.68695	-1216.1414	347.45334	969.93671	-1377.0603	275.12164	607.91595	-1100.5898	270.86429	626.34528	-1360.4155	443.29065	675.0589	-1183.0449	444.42224	673.74646	-1256.801	180.23218	459.98901	-936.6333	94.862808	355.79401	-899	205.20918	183.69669	-940.15619	292.17163	63.677998	-1005.5198	312.60846	54.391335	-1067.9342	158.4305	38.897522	-967.54028	300.06671	555.50037	-1445.3472	103.48255	344.44241	-1536.2192	140.19388	267.77109	-1530.0833	289.72964	69.150398	-1433.1936	315.78119	52.638294	-1362.4554	162.40007	40.983139	-1462.668
1387	6.93	334.04785	1042.5977	-1225.5043	185.07373	967.21649	-1216.3961	347.26941	965.46613	-1377.0538	275.70215	603.65991	-1100.457	271.31833	622.27728	-1360.3258	443.84058	670.82355	-1182.9403	444.94495	669.40417	-1256.6688	180.11734	458.36395	-936.40485	94.229935	355.06451	-898.34644	204.8044	183.33015	-939.84723	292.21143	63.655025	-1005.59	312.58646	54.413418	-1067.9672	158.44086	38.871338	-967.54004	300.71359	552.64703	-1445.2478	102.68393	343.53384	-1536.9318	139.44473	266.99542	-1530.5599	289.67743	69.089142	-1433.2206	315.57587	52.808575	-1362.0709	162.37473	40.980228	-1462.7113
1388	6.935	333.74423	1038.196	-1225.4258	185.04871	962.48761	-1216.2295	347.08243	961.13312	-1376.9598	276.17227	599.53345	-1100.2642	271.83731	618.21912	-1360.2791	444.37073	666.49054	-1182.8597	445.46143	665.2074	-1256.4944	180.08531	456.79568	-936.11011	93.486626	354.28891	-897.65613	204.38181	182.92381	-939.57959	294.5011	64.578453	-1007.8159	312.61545	54.430058	-1068.0179	158.50357	38.831913	-967.58167	301.41928	549.70837	-1445.0846	101.97722	342.63312	-1537.6409	138.77841	266.2359	-1531.1863	289.64539	68.998985	-1433.2604	315.582	52.836941	-1362.2551	162.4037	40.838692	-1462.6595
1389	6.94	333.47906	1033.9152	-1225.4639	184.69569	957.83081	-1216.0874	346.81223	956.71436	-1376.9081	276.66357	595.35535	-1099.9983	272.36639	614.16809	-1360.2131	444.85828	662.32092	-1182.8046	446.02429	660.9411	-1256.4487	180.02451	455.24136	-935.79156	92.92659	353.55411	-897.0603	204.00407	182.45805	-939.33142	294.49072	64.557716	-1007.8663	312.6907	54.532478	-1068.1245	158.49026	38.823662	-967.58929	302.0423	546.96466	-1445.0437	101.21916	341.81537	-1538.2704	138.20056	265.60809	-1531.7522	289.61755	68.963448	-1433.3114	315.56003	52.906357	-1362.2675	162.38965	40.832233	-1462.7264
1390	6.945	333.11627	1029.6368	-1225.4015	184.57576	953.40985	-1216.218	346.56998	952.48834	-1376.9307	277.18457	591.19403	-1099.8446	272.76868	610.21216	-1360.2146	445.36371	658.23236	-1182.5834	446.48734	656.71143	-1256.3401	180.12857	453.69174	-935.70508	92.357796	352.89343	-896.33441	203.64023	182.097	-939.03973	294.36249	64.531334	-1007.7969	312.64771	54.644283	-1068.1597	158.44646	38.854992	-967.58264	302.70227	544.14087	-1444.8236	100.51207	341.06952	-1538.9037	137.54901	264.95673	-1532.2349	289.56125	68.994499	-1433.3713	315.56937	52.963749	-1362.4507	162.37923	40.839851	-1462.7506
1391	6.95	332.77545	1025.441	-1225.3617	184.35861	948.81049	-1216.0948	346.19916	948.17609	-1376.8528	277.7569	587.15601	-1099.8888	273.1749	606.25476	-1360.0922	445.86093	654.12506	-1182.3462	446.92194	652.64954	-1256.178	180.10844	452.15726	-935.36469	91.857773	352.27081	-895.73254	203.28961	181.75665	-938.7702	294.30585	64.560455	-1007.8163	312.59344	54.720013	-1068.1876	158.45032	38.855717	-967.52783	303.34308	541.45227	-1444.7233	99.844345	340.41418	-1539.5361	137.00876	264.43985	-1532.7505	289.505	68.995811	-1433.4457	315.60065	53.012489	-1362.5332	162.36473	40.892647	-1462.7861
1392	6.955	332.49716	1021.2975	-1225.3717	184.26393	944.33124	-1216.2869	345.91199	943.97021	-1376.8589	278.29962	583.1051	-1099.8875	273.58951	602.32416	-1360.106	446.36652	650.03723	-1182.3162	447.38931	648.56262	-1256.1078	180.51295	451.09973	-935.34094	91.379303	351.55566	-895.19696	202.96603	181.45273	-938.50885	294.24863	64.529778	-1007.8231	312.56378	54.769749	-1068.2163	158.45587	38.866352	-967.50842	303.98364	538.72131	-1444.5507	99.238487	339.68054	-1540.1133	136.46082	263.84424	-1533.2444	289.4567	69.002731	-1433.4807	315.60251	53.124905	-1362.5269	162.34633	40.864731	-1462.7667
1393	6.96	332.16376	1017.0355	-1225.3606	183.70641	939.79401	-1215.8792	345.58298	939.75635	-1376.9072	278.72836	579.04486	-1099.5757	274.01547	598.37323	-1360.1107	446.89227	645.93915	-1182.5555	447.91708	644.56427	-1256.1344	180.56152	449.74246	-935.07874	90.852661	351.01642	-894.50232	202.67384	181.12662	-938.32672	294.24908	64.477173	-1007.8653	312.53757	54.707703	-1068.2291	158.45993	38.814381	-967.50702	304.58749	536.04254	-1444.4281	98.570038	338.96234	-1540.6313	135.88116	263.2337	-1533.6754	289.40942	68.968887	-1433.5096	315.61429	53.161812	-1362.6421	162.33913	40.830162	-1462.7675
1394	6.965	331.84061	1012.8209	-1225.3569	183.78883	935.42596	-1216.5028	345.30194	935.47357	-1376.896	279.10608	575.03821	-1099.2356	274.44931	594.34406	-1359.9623	447.38629	641.91119	-1182.635	448.38025	640.60114	-1256.1169	180.63945	448.40933	-934.73608	90.448868	350.45041	-893.88147	202.3597	180.74498	-938.05902	294.27493	64.407776	-1007.9105	312.49292	54.66827	-1068.2527	158.47165	38.791901	-967.55951	305.24683	533.2453	-1444.1707	97.944534	338.2009	-1541.1006	135.27774	262.57227	-1533.9946	289.34152	68.911629	-1433.526	315.57965	53.195545	-1362.653	162.33076	40.706161	-1462.7697
1395	6.97	331.50067	1008.6286	-1225.3689	183.38338	930.96008	-1216.2444	344.95834	931.2923	-1376.9358	279.65714	571.08301	-1099.1948	274.74435	590.48511	-1359.9449	447.83823	637.85425	-1182.577	448.78625	636.58252	-1256.0852	180.58708	446.70209	-934.64636	90.078827	349.85938	-893.26416	202.07271	180.42482	-937.80872	294.26648	64.396164	-1007.9427	312.45184	54.637924	-1068.2496	158.48251	38.744743	-967.54633	305.87598	530.6059	-1443.9833	97.343048	337.49976	-1541.6394	134.62701	261.96021	-1534.3425	289.24689	68.857422	-1433.5392	315.48572	53.256741	-1362.5931	162.28789	40.668884	-1462.7823
1396	6.975	331.1441	1004.5251	-1225.3401	182.85686	926.45026	-1215.634	344.59442	927.16254	-1376.947	280.21835	567.15613	-1099.1588	275.11252	586.63806	-1359.8993	448.26825	633.88818	-1182.3302	449.13803	632.57922	-1256.0023	180.74677	445.26477	-934.57898	89.725128	349.33423	-892.66931	201.78036	180.04385	-937.60046	294.20605	64.410553	-1007.9355	312.55048	54.867886	-1068.3662	158.49301	38.749935	-967.49146	306.52457	527.95227	-1443.7407	96.675079	336.94559	-1542.0887	133.95648	261.42233	-1534.6198	289.15903	68.874023	-1433.5204	315.42828	53.287346	-1362.5919	162.25105	40.671268	-1462.7684
1397	6.98	330.80191	1000.4665	-1225.3201	183.08028	922.21558	-1216.322	344.07986	923.00958	-1376.842	280.74588	563.33386	-1099.1836	275.5415	582.77496	-1359.9225	448.6965	630.12646	-1182.2421	449.5043	628.59961	-1255.9768	180.96545	444.0405	-934.34515	89.435303	348.84995	-892.0434	201.50461	179.72739	-937.34045	294.10776	64.41021	-1007.8789	312.46454	54.948223	-1068.4034	158.51086	38.773533	-967.43872	307.11182	525.47437	-1443.6085	96.098969	336.39948	-1542.5421	133.37032	260.95645	-1534.9357	289.07779	68.920494	-1433.5155	315.3515	53.42075	-1362.5211	162.20778	40.715523	-1462.7506
1398	6.985	330.44434	996.39148	-1225.3529	182.84738	917.95062	-1216.2976	343.84317	919.08228	-1376.9342	281.20016	559.49945	-1099.0776	275.91702	578.89551	-1359.8352	449.16687	626.32874	-1182.3438	449.9389	624.7771	-1255.9908	181.45068	443.26657	-934.17322	89.18718	348.38708	-891.45795	201.34767	179.46098	-937.1496	294.06747	64.413849	-1007.9141	312.51492	55.077946	-1068.4867	158.51297	38.780651	-967.50146	307.77774	522.80475	-1443.3564	95.553078	335.80737	-1542.9851	132.7997	260.39685	-1535.219	289.01147	68.910286	-1433.4945	315.27924	53.521721	-1362.4441	162.17339	40.698677	-1462.7421
